Coordinates
nRows=12
nColumns=24

# SIMM Motion File Header:
name Coordinates
datacolumns 24
datarows 12
otherdata 1
range 0.31867000000000001000 0.32967000000000002000

Units are S.I. units (second, meters, Newtons, ...)
Angles are in degrees.

endheader
time	pelvis_tx	pelvis_ty	pelvis_tz	pelvis_tilt	pelvis_list	pelvis_rotation	hip_flexion_r	hip_adduction_r	hip_rotation_r	knee_angle_r	ankle_angle_r	subtalar_angle_r	mtp_angle_r	hip_flexion_l	hip_adduction_l	hip_rotation_l	knee_angle_l	ankle_angle_l	subtalar_angle_l	mtp_angle_l	lumbar_extension	lumbar_bending	lumbar_rotation
      0.31867000000000001000	      1.00165368855844220000	      0.68586950957752024000	     -0.29377423509583206000	      5.75025575454643970000	      1.40102876552151320000	     -0.90989374103391518000	     18.43825173343219200000	     -7.63858139883505680000	    -12.06883240572321000000	    -40.19970683035911200000	      2.22789381338805010000	      0.00000000000000140268	     -0.00000000000000647754	    -13.37957961386642200000	      6.87887964913525170000	      1.95823690333331200000	     -4.35917646486997420000	      8.46980835986095040000	      0.00000000000003922784	     -0.00000000000018593453	    -21.29124851723681300000	     -1.28325448258413990000	     -3.30085324386003620000
      0.31967000000000001000	      1.00264386130182690000	      0.68573047948726551000	     -0.29347670216494615000	      5.75475373413406200000	      1.39082988252650200000	     -0.91247761845786979000	     18.50034130713797600000	     -7.61498404110336670000	    -12.28476577673542600000	    -39.83468221427269600000	      2.22115169366723510000	      0.00000000000000141074	     -0.00000000000000651644	    -13.53432915060631800000	      6.84839859125452040000	      1.92157093577978030000	     -4.25402714767970020000	      8.47833374090089360000	      0.00000000000003953329	     -0.00000000000018789040	    -21.31628431802977600000	     -1.32104724756899890000	     -3.22078183759481980000
      0.32067000000000001000	      1.00363473989074790000	      0.68558910198985168000	     -0.29318089980990358000	      5.75935618229212040000	      1.38170049863889970000	     -0.91546004854249929000	     18.56054181773090400000	     -7.59152116135157760000	    -12.49535666771466100000	    -39.46597904266369000000	      2.21190514313276370000	      0.00000000000000142026	     -0.00000000000000655270	    -13.68841096729239500000	      6.81883267498482320000	      1.88001006169704230000	     -4.15024898766685530000	      8.48758332939446980000	      0.00000000000003981821	     -0.00000000000018981336	    -21.34135460900464000000	     -1.35903669797452760000	     -3.14182260107868720000
      0.32167000000000001000	      1.00462639546645470000	      0.68544540194265924000	     -0.29288695207131421000	      5.76406188223560000000	      1.37362829362960670000	     -0.91880683399670049000	     18.61881563403357700000	     -7.56819595328943340000	    -12.70041655814035200000	    -39.09358928681079000000	      2.20016960525940370000	      0.00000000000000142891	     -0.00000000000000658829	    -13.84182450441741000000	      6.79017822209047050000	      1.83369259777624280000	     -4.04786026275938050000	      8.49755077069174370000	      0.00000000000004013129	     -0.00000000000019186523	    -21.36644604345525900000	     -1.39716372244868610000	     -3.06404671498491470000
      0.32267000000000001000	      1.00561889943564590000	      0.68529940367976039000	     -0.29259497920031308000	      5.76886958098551620000	      1.36660002349705350000	     -0.92248354039551927000	     18.67512585404381300000	     -7.54501156990284110000	    -12.89976202003939100000	    -38.71750790790733300000	      2.18596424613235560000	      0.00000000000000144099	     -0.00000000000000662764	    -13.99456952469351400000	      6.76243035236098230000	      1.78276198359099220000	     -3.94687859019123710000	      8.50822838881912170000	      0.00000000000004041177	     -0.00000000000019381059	    -21.39154525991027400000	     -1.43536980207450740000	     -2.98752320583088200000
      0.32367000000000001000	      1.00661232321225390000	      0.68515113093608726000	     -0.29230509747649741000	      5.77377794821833930000	      1.36060154209598450000	     -0.92645559425600166000	     18.72943655952656500000	     -7.52197112236666500000	    -13.09321484941373000000	    -38.33773298503684400000	      2.16931196740300350000	      0.00000000000000145125	     -0.00000000000000666621	    -14.14664605582028200000	      6.73558300393543610000	      1.72736647474387880000	     -3.84732092228891310000	      8.51960720577782740000	      0.00000000000004070308	     -0.00000000000019571037	    -21.41663885789431300000	     -1.47359708494774780000	     -2.91231884572049890000
      0.32467000000000001000	      1.00760673809251090000	      0.68500060684051678000	     -0.29201741903681022000	      5.77878556830162180000	      1.35561781860586540000	     -0.93068833682653884000	     18.78171289998283600000	     -7.49907766697304190000	    -13.28060226574627700000	    -37.95426581265100900000	      2.15023936251061750000	      0.00000000000000146366	     -0.00000000000000669745	    -14.29805437417814100000	      6.70962893950991380000	      1.66765887975939650000	     -3.74920353420835630000	      8.53167695784222780000	      0.00000000000004099100	     -0.00000000000019753257	    -21.44171340414679200000	     -1.51178844443428950000	     -2.83849809276173740000
      0.32567000000000002000	      1.00860221513043810000	      0.68484785390989922000	     -0.29173205170800071000	      5.78389093264056610000	      1.35163295537744150000	     -0.93514707770645966000	     18.83192117555431700000	     -7.47633419218179270000	    -13.46175711091728500000	    -37.56711099787703700000	      2.12877667213408460000	      0.00000000000000147964	     -0.00000000000000673464	    -14.44879498877671200000	      6.68455975317660740000	      1.60379629658489330000	     -3.65254201188551830000	      8.54442610651180700000	      0.00000000000004129303	     -0.00000000000019936423	    -21.46675543912712700000	     -1.54988753725582180000	     -2.76612303220452470000
      0.32667000000000002000	      1.00959882501478050000	      0.68469289404588918000	     -0.29144909885086062000	      5.78909243241490130000	      1.34863020787871470000	     -0.93979714799099923000	     18.88002891797566800000	     -7.45374360601692580000	    -13.63651804040474500000	    -37.17627655338704100000	      2.10495772435302620000	      0.00000000000000149777	     -0.00000000000000677484	    -14.59886862532020600000	      6.66036588143533150000	      1.53593984230897810000	     -3.55735124262621700000	      8.55784185178131200000	      0.00000000000004168722	     -0.00000000000020140462	    -21.49175148394635900000	     -1.58783885982665570000	     -2.69525332265472840000
      0.32767000000000002000	      1.01059663795042720000	      0.68453574853747201000	     -0.29116865922808965000	      5.79438835190612610000	      1.34659200782842460000	     -0.94460395215762849000	     18.92600496685522800000	     -7.43130872193015260000	    -13.80472969603795100000	    -36.78177397910710100000	      2.07881983809409880000	      0.00000000000000151924	     -0.00000000000000681078	    -14.74827621059687700000	      6.63703661994015450000	      1.46425436444467220000	     -3.46364540774613430000	      8.57191017545886250000	      0.00000000000004207349	     -0.00000000000020340878	    -21.51668804796532100000	     -1.62558779880953290000	     -2.62594615388374470000
      0.32867000000000002000	      1.01159572354306190000	      0.68437643806639958000	     -0.29089082688572310000	      5.79977686225305340000	      1.34549998815372660000	     -0.94953301956604719000	     18.96981954372546400000	     -7.40903224422205660000	    -13.96624286988458700000	    -36.38361833868779600000	      2.05040370920720160000	      0.00000000000000154454	     -0.00000000000000684813	    -14.89701885723306400000	      6.61456014338004470000	      1.38890814362893320000	     -3.37143797569116680000	      8.58661589004689850000	      0.00000000000004243406	     -0.00000000000020538974	    -21.54155163682111500000	     -1.66308067925362610000	     -2.55825621002274110000
      0.32967000000000002000	      1.01259615068508160000	      0.68421498271350578000	     -0.29061569103943297000	      5.80525601537241710000	      1.34533500876212700000	     -0.95455005600568787000	     19.01144432586586000000	     -7.38691675407531980000	    -14.12091466692884700000	    -35.98182833542146900000	      2.01975329422681860000	      0.00000000000000157094	     -0.00000000000000688723	    -15.04509784843615900000	      6.59292352705375960000	      1.31007259570768510000	     -3.28074169649503890000	      8.60194268108513070000	      0.00000000000004275456	     -0.00000000000020727817	    -21.56632876058131400000	     -1.70026481289119300000	     -2.49223563357068120000
